<svg xmlns="http://www.w3.org/2000/svg" version="1.1" xmlns:xlink="http://www.w3.org/1999/xlink" xmlns:svgjs="http://svgjs.com/svgjs" width="1440" height="560" preserveAspectRatio="none" viewBox="0 0 1440 560"><g mask="url(&quot;#SvgjsMask1061&quot;)" fill="none"><rect width="1440" height="560" x="0" y="0" fill="rgba(77, 167, 118, 0.5176470588235295)"></rect><path d="M-107.86 357.77L-107.86 357.77" stroke="rgba(244, 247, 247, 1)" stroke-width="1.5"></path><path d="M-107.86 357.77L-50.94 492.29" stroke="rgba(244, 247, 247, 1)" stroke-width="1.5"></path><path d="M-107.86 357.77L50.13 396.65" stroke="rgba(244, 247, 247, 1)" stroke-width="1.5"></path><path d="M-50.94 492.29L-50.94 492.29" stroke="rgba(244, 247, 247, 1)" stroke-width="1.5"></path><path d="M-50.94 492.29L50.13 396.65" stroke="rgba(244, 247, 247, 1)" stroke-width="1.5"></path><path d="M-50.94 492.29L94.83 525.98" stroke="rgba(244, 247, 247, 1)" stroke-width="1.5"></path><path d="M-50.94 492.29L-73.34 646.86" stroke="rgba(244, 247, 247, 1)" stroke-width="1.5"></path><path d="M-50.94 492.29L83.58 671.93" stroke="rgba(244, 247, 247, 1)" stroke-width="1.5"></path><path d="M-73.34 646.86L-73.34 646.86" stroke="rgba(244, 247, 247, 1)" stroke-width="1.5"></path><path d="M-73.34 646.86L83.58 671.93" stroke="rgba(244, 247, 247, 1)" stroke-width="1.5"></path><path d="M-73.34 646.86L94.83 525.98" stroke="rgba(244, 247, 247, 1)" stroke-width="1.5"></path><path d="M-73.34 646.86L50.13 396.65" stroke="rgba(244, 247, 247, 1)" stroke-width="1.5"></path><path d="M50.13 396.65L50.13 396.65" stroke="rgba(244, 247, 247, 1)" stroke-width="1.5"></path><path d="M50.13 396.65L94.83 525.98" stroke="rgba(244, 247, 247, 1)" stroke-width="1.5"></path><path d="M50.13 396.65L216.15 401.39" stroke="rgba(244, 247, 247, 1)" stroke-width="1.5"></path><path d="M50.13 396.65L236.54 528.51" stroke="rgba(244, 247, 247, 1)" stroke-width="1.5"></path><path d="M94.83 525.98L94.83 525.98" stroke="rgba(244, 247, 247, 1)" stroke-width="1.5"></path><path d="M94.83 525.98L236.54 528.51" stroke="rgba(244, 247, 247, 1)" stroke-width="1.5"></path><path d="M94.83 525.98L83.58 671.93" stroke="rgba(244, 247, 247, 1)" stroke-width="1.5"></path><path d="M83.58 671.93L83.58 671.93" stroke="rgba(244, 247, 247, 1)" stroke-width="1.5"></path><path d="M83.58 671.93L208.81 650.55" stroke="rgba(244, 247, 247, 1)" stroke-width="1.5"></path><path d="M83.58 671.93L236.54 528.51" stroke="rgba(244, 247, 247, 1)" stroke-width="1.5"></path><path d="M216.15 401.39L216.15 401.39" stroke="rgba(244, 247, 247, 1)" stroke-width="1.5"></path><path d="M216.15 401.39L236.54 528.51" stroke="rgba(244, 247, 247, 1)" stroke-width="1.5"></path><path d="M216.15 401.39L94.83 525.98" stroke="rgba(244, 247, 247, 1)" stroke-width="1.5"></path><path d="M216.15 401.39L379.71 341.8" stroke="rgba(244, 247, 247, 1)" stroke-width="1.5"></path><path d="M216.15 401.39L393.66 506.65" stroke="rgba(244, 247, 247, 1)" stroke-width="1.5"></path><path d="M216.15 401.39L208.81 650.55" stroke="rgba(244, 247, 247, 1)" stroke-width="1.5"></path><path d="M236.54 528.51L236.54 528.51" stroke="rgba(244, 247, 247, 1)" stroke-width="1.5"></path><path d="M236.54 528.51L208.81 650.55" stroke="rgba(244, 247, 247, 1)" stroke-width="1.5"></path><path d="M208.81 650.55L208.81 650.55" stroke="rgba(244, 247, 247, 1)" stroke-width="1.5"></path><path d="M208.81 650.55L369.99 683.81" stroke="rgba(244, 247, 247, 1)" stroke-width="1.5"></path><path d="M208.81 650.55L94.83 525.98" stroke="rgba(244, 247, 247, 1)" stroke-width="1.5"></path><path d="M208.81 650.55L393.66 506.65" stroke="rgba(244, 247, 247, 1)" stroke-width="1.5"></path><path d="M379.71 341.8L379.71 341.8" stroke="rgba(244, 247, 247, 1)" stroke-width="1.5"></path><path d="M379.71 341.8L499.43 343.69" stroke="rgba(244, 247, 247, 1)" stroke-width="1.5"></path><path d="M379.71 341.8L393.66 506.65" stroke="rgba(244, 247, 247, 1)" stroke-width="1.5"></path><path d="M379.71 341.8L528.7 487.61" stroke="rgba(244, 247, 247, 1)" stroke-width="1.5"></path><path d="M379.71 341.8L236.54 528.51" stroke="rgba(244, 247, 247, 1)" stroke-width="1.5"></path><path d="M379.71 341.8L705.43 348.43" stroke="rgba(244, 247, 247, 1)" stroke-width="1.5"></path><path d="M393.66 506.65L393.66 506.65" stroke="rgba(244, 247, 247, 1)" stroke-width="1.5"></path><path d="M393.66 506.65L528.7 487.61" stroke="rgba(244, 247, 247, 1)" stroke-width="1.5"></path><path d="M393.66 506.65L236.54 528.51" stroke="rgba(244, 247, 247, 1)" stroke-width="1.5"></path><path d="M393.66 506.65L369.99 683.81" stroke="rgba(244, 247, 247, 1)" stroke-width="1.5"></path><path d="M369.99 683.81L369.99 683.81" stroke="rgba(244, 247, 247, 1)" stroke-width="1.5"></path><path d="M499.43 343.69L499.43 343.69" stroke="rgba(244, 247, 247, 1)" stroke-width="1.5"></path><path d="M499.43 343.69L528.7 487.61" stroke="rgba(244, 247, 247, 1)" stroke-width="1.5"></path><path d="M528.7 487.61L528.7 487.61" stroke="rgba(244, 247, 247, 1)" stroke-width="1.5"></path><path d="M528.7 487.61L694.44 541.37" stroke="rgba(244, 247, 247, 1)" stroke-width="1.5"></path><path d="M528.7 487.61L550.55 670.88" stroke="rgba(244, 247, 247, 1)" stroke-width="1.5"></path><path d="M528.7 487.61L705.43 348.43" stroke="rgba(244, 247, 247, 1)" stroke-width="1.5"></path><path d="M550.55 670.88L550.55 670.88" stroke="rgba(244, 247, 247, 1)" stroke-width="1.5"></path><path d="M550.55 670.88L369.99 683.81" stroke="rgba(244, 247, 247, 1)" stroke-width="1.5"></path><path d="M705.43 348.43L705.43 348.43" stroke="rgba(244, 247, 247, 1)" stroke-width="1.5"></path><path d="M705.43 348.43L845.13 377.71" stroke="rgba(244, 247, 247, 1)" stroke-width="1.5"></path><path d="M705.43 348.43L789.17 207.67" stroke="rgba(244, 247, 247, 1)" stroke-width="1.5"></path><path d="M705.43 348.43L801.37 497.22" stroke="rgba(244, 247, 247, 1)" stroke-width="1.5"></path><path d="M694.44 541.37L694.44 541.37" stroke="rgba(244, 247, 247, 1)" stroke-width="1.5"></path><path d="M694.44 541.37L801.37 497.22" stroke="rgba(244, 247, 247, 1)" stroke-width="1.5"></path><path d="M694.44 541.37L794.68 684.97" stroke="rgba(244, 247, 247, 1)" stroke-width="1.5"></path><path d="M694.44 541.37L705.43 348.43" stroke="rgba(244, 247, 247, 1)" stroke-width="1.5"></path><path d="M855.63 107.09L855.63 107.09" stroke="rgba(244, 247, 247, 1)" stroke-width="1.5"></path><path d="M855.63 107.09L789.17 207.67" stroke="rgba(244, 247, 247, 1)" stroke-width="1.5"></path><path d="M855.63 107.09L993.49 71.92" stroke="rgba(244, 247, 247, 1)" stroke-width="1.5"></path><path d="M855.63 107.09L994.57 205.34" stroke="rgba(244, 247, 247, 1)" stroke-width="1.5"></path><path d="M855.63 107.09L969.28 -105.58" stroke="rgba(244, 247, 247, 1)" stroke-width="1.5"></path><path d="M855.63 107.09L845.13 377.71" stroke="rgba(244, 247, 247, 1)" stroke-width="1.5"></path><path d="M855.63 107.09L705.43 348.43" stroke="rgba(244, 247, 247, 1)" stroke-width="1.5"></path><path d="M789.17 207.67L789.17 207.67" stroke="rgba(244, 247, 247, 1)" stroke-width="1.5"></path><path d="M789.17 207.67L845.13 377.71" stroke="rgba(244, 247, 247, 1)" stroke-width="1.5"></path><path d="M789.17 207.67L994.57 205.34" stroke="rgba(244, 247, 247, 1)" stroke-width="1.5"></path><path d="M845.13 377.71L845.13 377.71" stroke="rgba(244, 247, 247, 1)" stroke-width="1.5"></path><path d="M845.13 377.71L801.37 497.22" stroke="rgba(244, 247, 247, 1)" stroke-width="1.5"></path><path d="M845.13 377.71L1003.71 382.22" stroke="rgba(244, 247, 247, 1)" stroke-width="1.5"></path><path d="M845.13 377.71L1001.4 513.55" stroke="rgba(244, 247, 247, 1)" stroke-width="1.5"></path><path d="M801.37 497.22L801.37 497.22" stroke="rgba(244, 247, 247, 1)" stroke-width="1.5"></path><path d="M801.37 497.22L794.68 684.97" stroke="rgba(244, 247, 247, 1)" stroke-width="1.5"></path><path d="M794.68 684.97L794.68 684.97" stroke="rgba(244, 247, 247, 1)" stroke-width="1.5"></path><path d="M794.68 684.97L993.3 637.69" stroke="rgba(244, 247, 247, 1)" stroke-width="1.5"></path><path d="M794.68 684.97L550.55 670.88" stroke="rgba(244, 247, 247, 1)" stroke-width="1.5"></path><path d="M969.28 -105.58L969.28 -105.58" stroke="rgba(244, 247, 247, 1)" stroke-width="1.5"></path><path d="M969.28 -105.58L1131.38 -38.5" stroke="rgba(244, 247, 247, 1)" stroke-width="1.5"></path><path d="M969.28 -105.58L993.49 71.92" stroke="rgba(244, 247, 247, 1)" stroke-width="1.5"></path><path d="M969.28 -105.58L1260.89 -61.34" stroke="rgba(244, 247, 247, 1)" stroke-width="1.5"></path><path d="M993.49 71.92L993.49 71.92" stroke="rgba(244, 247, 247, 1)" stroke-width="1.5"></path><path d="M993.49 71.92L994.57 205.34" stroke="rgba(244, 247, 247, 1)" stroke-width="1.5"></path><path d="M994.57 205.34L994.57 205.34" stroke="rgba(244, 247, 247, 1)" stroke-width="1.5"></path><path d="M994.57 205.34L1126.67 237.39" stroke="rgba(244, 247, 247, 1)" stroke-width="1.5"></path><path d="M994.57 205.34L1003.71 382.22" stroke="rgba(244, 247, 247, 1)" stroke-width="1.5"></path><path d="M1003.71 382.22L1003.71 382.22" stroke="rgba(244, 247, 247, 1)" stroke-width="1.5"></path><path d="M1003.71 382.22L1001.4 513.55" stroke="rgba(244, 247, 247, 1)" stroke-width="1.5"></path><path d="M1001.4 513.55L1001.4 513.55" stroke="rgba(244, 247, 247, 1)" stroke-width="1.5"></path><path d="M1001.4 513.55L1089.08 541.62" stroke="rgba(244, 247, 247, 1)" stroke-width="1.5"></path><path d="M1001.4 513.55L993.3 637.69" stroke="rgba(244, 247, 247, 1)" stroke-width="1.5"></path><path d="M993.3 637.69L993.3 637.69" stroke="rgba(244, 247, 247, 1)" stroke-width="1.5"></path><path d="M993.3 637.69L1089.43 678.91" stroke="rgba(244, 247, 247, 1)" stroke-width="1.5"></path><path d="M993.3 637.69L1089.08 541.62" stroke="rgba(244, 247, 247, 1)" stroke-width="1.5"></path><path d="M1131.38 -38.5L1131.38 -38.5" stroke="rgba(244, 247, 247, 1)" stroke-width="1.5"></path><path d="M1131.38 -38.5L1260.89 -61.34" stroke="rgba(244, 247, 247, 1)" stroke-width="1.5"></path><path d="M1131.38 -38.5L993.49 71.92" stroke="rgba(244, 247, 247, 1)" stroke-width="1.5"></path><path d="M1131.38 -38.5L1252.99 103.1" stroke="rgba(244, 247, 247, 1)" stroke-width="1.5"></path><path d="M1131.38 -38.5L1126.67 237.39" stroke="rgba(244, 247, 247, 1)" stroke-width="1.5"></path><path d="M1126.67 237.39L1126.67 237.39" stroke="rgba(244, 247, 247, 1)" stroke-width="1.5"></path><path d="M1126.67 237.39L1154.37 368.71" stroke="rgba(244, 247, 247, 1)" stroke-width="1.5"></path><path d="M1126.67 237.39L1276.93 218.49" stroke="rgba(244, 247, 247, 1)" stroke-width="1.5"></path><path d="M1126.67 237.39L1252.99 103.1" stroke="rgba(244, 247, 247, 1)" stroke-width="1.5"></path><path d="M1126.67 237.39L1003.71 382.22" stroke="rgba(244, 247, 247, 1)" stroke-width="1.5"></path><path d="M1154.37 368.71L1154.37 368.71" stroke="rgba(244, 247, 247, 1)" stroke-width="1.5"></path><path d="M1154.37 368.71L1299.08 389" stroke="rgba(244, 247, 247, 1)" stroke-width="1.5"></path><path d="M1154.37 368.71L1003.71 382.22" stroke="rgba(244, 247, 247, 1)" stroke-width="1.5"></path><path d="M1089.08 541.62L1089.08 541.62" stroke="rgba(244, 247, 247, 1)" stroke-width="1.5"></path><path d="M1089.08 541.62L1089.43 678.91" stroke="rgba(244, 247, 247, 1)" stroke-width="1.5"></path><path d="M1089.08 541.62L1003.71 382.22" stroke="rgba(244, 247, 247, 1)" stroke-width="1.5"></path><path d="M1089.43 678.91L1089.43 678.91" stroke="rgba(244, 247, 247, 1)" stroke-width="1.5"></path><path d="M1089.43 678.91L1001.4 513.55" stroke="rgba(244, 247, 247, 1)" stroke-width="1.5"></path><path d="M1089.43 678.91L1287.74 703.77" stroke="rgba(244, 247, 247, 1)" stroke-width="1.5"></path><path d="M1089.43 678.91L1301.86 522.94" stroke="rgba(244, 247, 247, 1)" stroke-width="1.5"></path><path d="M1260.89 -61.34L1260.89 -61.34" stroke="rgba(244, 247, 247, 1)" stroke-width="1.5"></path><path d="M1260.89 -61.34L1252.99 103.1" stroke="rgba(244, 247, 247, 1)" stroke-width="1.5"></path><path d="M1252.99 103.1L1252.99 103.1" stroke="rgba(244, 247, 247, 1)" stroke-width="1.5"></path><path d="M1252.99 103.1L1276.93 218.49" stroke="rgba(244, 247, 247, 1)" stroke-width="1.5"></path><path d="M1252.99 103.1L1454.81 209.81" stroke="rgba(244, 247, 247, 1)" stroke-width="1.5"></path><path d="M1252.99 103.1L1435.87 -79.23" stroke="rgba(244, 247, 247, 1)" stroke-width="1.5"></path><path d="M1276.93 218.49L1276.93 218.49" stroke="rgba(244, 247, 247, 1)" stroke-width="1.5"></path><path d="M1276.93 218.49L1299.08 389" stroke="rgba(244, 247, 247, 1)" stroke-width="1.5"></path><path d="M1299.08 389L1299.08 389" stroke="rgba(244, 247, 247, 1)" stroke-width="1.5"></path><path d="M1299.08 389L1390.43 368.06" stroke="rgba(244, 247, 247, 1)" stroke-width="1.5"></path><path d="M1299.08 389L1301.86 522.94" stroke="rgba(244, 247, 247, 1)" stroke-width="1.5"></path><path d="M1301.86 522.94L1301.86 522.94" stroke="rgba(244, 247, 247, 1)" stroke-width="1.5"></path><path d="M1301.86 522.94L1435.11 514.74" stroke="rgba(244, 247, 247, 1)" stroke-width="1.5"></path><path d="M1301.86 522.94L1390.43 368.06" stroke="rgba(244, 247, 247, 1)" stroke-width="1.5"></path><path d="M1287.74 703.77L1287.74 703.77" stroke="rgba(244, 247, 247, 1)" stroke-width="1.5"></path><path d="M1287.74 703.77L1425.74 677.07" stroke="rgba(244, 247, 247, 1)" stroke-width="1.5"></path><path d="M1435.87 -79.23L1435.87 -79.23" stroke="rgba(244, 247, 247, 1)" stroke-width="1.5"></path><path d="M1435.87 -79.23L1570.26 -62.15" stroke="rgba(244, 247, 247, 1)" stroke-width="1.5"></path><path d="M1435.87 -79.23L1260.89 -61.34" stroke="rgba(244, 247, 247, 1)" stroke-width="1.5"></path><path d="M1435.87 -79.23L1557.23 66.14" stroke="rgba(244, 247, 247, 1)" stroke-width="1.5"></path><path d="M1435.87 -79.23L1454.81 209.81" stroke="rgba(244, 247, 247, 1)" stroke-width="1.5"></path><path d="M1454.81 209.81L1454.81 209.81" stroke="rgba(244, 247, 247, 1)" stroke-width="1.5"></path><path d="M1454.81 209.81L1590.09 260.72" stroke="rgba(244, 247, 247, 1)" stroke-width="1.5"></path><path d="M1454.81 209.81L1390.43 368.06" stroke="rgba(244, 247, 247, 1)" stroke-width="1.5"></path><path d="M1454.81 209.81L1557.23 66.14" stroke="rgba(244, 247, 247, 1)" stroke-width="1.5"></path><path d="M1454.81 209.81L1276.93 218.49" stroke="rgba(244, 247, 247, 1)" stroke-width="1.5"></path><path d="M1390.43 368.06L1390.43 368.06" stroke="rgba(244, 247, 247, 1)" stroke-width="1.5"></path><path d="M1390.43 368.06L1435.11 514.74" stroke="rgba(244, 247, 247, 1)" stroke-width="1.5"></path><path d="M1390.43 368.06L1546.59 386.14" stroke="rgba(244, 247, 247, 1)" stroke-width="1.5"></path><path d="M1390.43 368.06L1276.93 218.49" stroke="rgba(244, 247, 247, 1)" stroke-width="1.5"></path><path d="M1435.11 514.74L1435.11 514.74" stroke="rgba(244, 247, 247, 1)" stroke-width="1.5"></path><path d="M1435.11 514.74L1554.33 541.61" stroke="rgba(244, 247, 247, 1)" stroke-width="1.5"></path><path d="M1435.11 514.74L1425.74 677.07" stroke="rgba(244, 247, 247, 1)" stroke-width="1.5"></path><path d="M1425.74 677.07L1425.74 677.07" stroke="rgba(244, 247, 247, 1)" stroke-width="1.5"></path><path d="M1570.26 -62.15L1570.26 -62.15" stroke="rgba(244, 247, 247, 1)" stroke-width="1.5"></path><path d="M1570.26 -62.15L1557.23 66.14" stroke="rgba(244, 247, 247, 1)" stroke-width="1.5"></path><path d="M1570.26 -62.15L1454.81 209.81" stroke="rgba(244, 247, 247, 1)" stroke-width="1.5"></path><path d="M1557.23 66.14L1557.23 66.14" stroke="rgba(244, 247, 247, 1)" stroke-width="1.5"></path><path d="M1590.09 260.72L1590.09 260.72" stroke="rgba(244, 247, 247, 1)" stroke-width="1.5"></path><path d="M1590.09 260.72L1546.59 386.14" stroke="rgba(244, 247, 247, 1)" stroke-width="1.5"></path><path d="M1590.09 260.72L1557.23 66.14" stroke="rgba(244, 247, 247, 1)" stroke-width="1.5"></path><path d="M1590.09 260.72L1390.43 368.06" stroke="rgba(244, 247, 247, 1)" stroke-width="1.5"></path><path d="M1590.09 260.72L1554.33 541.61" stroke="rgba(244, 247, 247, 1)" stroke-width="1.5"></path><path d="M1590.09 260.72L1435.11 514.74" stroke="rgba(244, 247, 247, 1)" stroke-width="1.5"></path><path d="M1546.59 386.14L1546.59 386.14" stroke="rgba(244, 247, 247, 1)" stroke-width="1.5"></path><path d="M1546.59 386.14L1554.33 541.61" stroke="rgba(244, 247, 247, 1)" stroke-width="1.5"></path><path d="M1554.33 541.61L1554.33 541.61" stroke="rgba(244, 247, 247, 1)" stroke-width="1.5"></path><path d="M1554.33 541.61L1603.31 707.53" stroke="rgba(244, 247, 247, 1)" stroke-width="1.5"></path><path d="M1554.33 541.61L1425.74 677.07" stroke="rgba(244, 247, 247, 1)" stroke-width="1.5"></path><path d="M1554.33 541.61L1390.43 368.06" stroke="rgba(244, 247, 247, 1)" stroke-width="1.5"></path><path d="M1603.31 707.53L1603.31 707.53" stroke="rgba(244, 247, 247, 1)" stroke-width="1.5"></path><path d="M1603.31 707.53L1425.74 677.07" stroke="rgba(244, 247, 247, 1)" stroke-width="1.5"></path><path d="M1603.31 707.53L1435.11 514.74" stroke="rgba(244, 247, 247, 1)" stroke-width="1.5"></path><path d="M1603.31 707.53L1287.74 703.77" stroke="rgba(244, 247, 247, 1)" stroke-width="1.5"></path><circle r="5" cx="-107.86" cy="357.77" fill="rgba(244, 247, 247, 1)"></circle><circle r="5" cx="-50.94" cy="492.29" fill="rgba(244, 247, 247, 1)"></circle><circle r="5" cx="-73.34" cy="646.86" fill="rgba(244, 247, 247, 1)"></circle><circle r="5" cx="50.13" cy="396.65" fill="rgba(244, 247, 247, 1)"></circle><circle r="5" cx="94.83" cy="525.98" fill="rgba(244, 247, 247, 1)"></circle><circle r="5" cx="83.58" cy="671.93" fill="rgba(244, 247, 247, 1)"></circle><circle r="5" cx="216.15" cy="401.39" fill="rgba(244, 247, 247, 1)"></circle><circle r="5" cx="236.54" cy="528.51" fill="rgba(244, 247, 247, 1)"></circle><circle r="5" cx="208.81" cy="650.55" fill="rgba(244, 247, 247, 1)"></circle><circle r="5" cx="379.71" cy="341.8" fill="rgba(244, 247, 247, 1)"></circle><circle r="5" cx="393.66" cy="506.65" fill="rgba(244, 247, 247, 1)"></circle><circle r="5" cx="369.99" cy="683.81" fill="rgba(244, 247, 247, 1)"></circle><circle r="5" cx="499.43" cy="343.69" fill="rgba(244, 247, 247, 1)"></circle><circle r="5" cx="528.7" cy="487.61" fill="rgba(244, 247, 247, 1)"></circle><circle r="5" cx="550.55" cy="670.88" fill="rgba(244, 247, 247, 1)"></circle><circle r="5" cx="705.43" cy="348.43" fill="rgba(244, 247, 247, 1)"></circle><circle r="5" cx="694.44" cy="541.37" fill="rgba(244, 247, 247, 1)"></circle><circle r="5" cx="855.63" cy="107.09" fill="rgba(244, 247, 247, 1)"></circle><circle r="5" cx="789.17" cy="207.67" fill="rgba(244, 247, 247, 1)"></circle><circle r="5" cx="845.13" cy="377.71" fill="rgba(244, 247, 247, 1)"></circle><circle r="5" cx="801.37" cy="497.22" fill="rgba(244, 247, 247, 1)"></circle><circle r="5" cx="794.68" cy="684.97" fill="rgba(244, 247, 247, 1)"></circle><circle r="5" cx="969.28" cy="-105.58" fill="rgba(244, 247, 247, 1)"></circle><circle r="5" cx="993.49" cy="71.92" fill="rgba(244, 247, 247, 1)"></circle><circle r="5" cx="994.57" cy="205.34" fill="rgba(244, 247, 247, 1)"></circle><circle r="5" cx="1003.71" cy="382.22" fill="rgba(244, 247, 247, 1)"></circle><circle r="5" cx="1001.4" cy="513.55" fill="rgba(244, 247, 247, 1)"></circle><circle r="5" cx="993.3" cy="637.69" fill="rgba(244, 247, 247, 1)"></circle><circle r="5" cx="1131.38" cy="-38.5" fill="rgba(244, 247, 247, 1)"></circle><circle r="5" cx="1126.67" cy="237.39" fill="rgba(244, 247, 247, 1)"></circle><circle r="5" cx="1154.37" cy="368.71" fill="rgba(244, 247, 247, 1)"></circle><circle r="5" cx="1089.08" cy="541.62" fill="rgba(244, 247, 247, 1)"></circle><circle r="5" cx="1089.43" cy="678.91" fill="rgba(244, 247, 247, 1)"></circle><circle r="5" cx="1260.89" cy="-61.34" fill="rgba(244, 247, 247, 1)"></circle><circle r="5" cx="1252.99" cy="103.1" fill="rgba(244, 247, 247, 1)"></circle><circle r="5" cx="1276.93" cy="218.49" fill="rgba(244, 247, 247, 1)"></circle><circle r="5" cx="1299.08" cy="389" fill="rgba(244, 247, 247, 1)"></circle><circle r="5" cx="1301.86" cy="522.94" fill="rgba(244, 247, 247, 1)"></circle><circle r="5" cx="1287.74" cy="703.77" fill="rgba(244, 247, 247, 1)"></circle><circle r="5" cx="1435.87" cy="-79.23" fill="rgba(244, 247, 247, 1)"></circle><circle r="5" cx="1454.81" cy="209.81" fill="rgba(244, 247, 247, 1)"></circle><circle r="5" cx="1390.43" cy="368.06" fill="rgba(244, 247, 247, 1)"></circle><circle r="5" cx="1435.11" cy="514.74" fill="rgba(244, 247, 247, 1)"></circle><circle r="5" cx="1425.74" cy="677.07" fill="rgba(244, 247, 247, 1)"></circle><circle r="5" cx="1570.26" cy="-62.15" fill="rgba(244, 247, 247, 1)"></circle><circle r="5" cx="1557.23" cy="66.14" fill="rgba(244, 247, 247, 1)"></circle><circle r="5" cx="1590.09" cy="260.72" fill="rgba(244, 247, 247, 1)"></circle><circle r="5" cx="1546.59" cy="386.14" fill="rgba(244, 247, 247, 1)"></circle><circle r="5" cx="1554.33" cy="541.61" fill="rgba(244, 247, 247, 1)"></circle><circle r="5" cx="1603.31" cy="707.53" fill="rgba(244, 247, 247, 1)"></circle><path d="M352.15 489.28L352.15 489.28" stroke="hsl(147.3, 96.5%, 43.6%)" stroke-width="1.5"></path><path d="M352.15 489.28L367.04 655.88" stroke="hsl(147.3, 96.5%, 43.6%)" stroke-width="1.5"></path><path d="M352.15 489.28L189.8 543.61" stroke="hsl(147.3, 96.5%, 43.6%)" stroke-width="1.5"></path><path d="M352.15 489.28L541.77 534.73" stroke="hsl(147.3, 96.5%, 43.6%)" stroke-width="1.5"></path><path d="M834.71 671.95L834.71 671.95" stroke="hsl(147.3, 96.5%, 43.6%)" stroke-width="1.5"></path><path d="M834.71 671.95L937.69 691.41" stroke="hsl(147.3, 96.5%, 43.6%)" stroke-width="1.5"></path><path d="M834.71 671.95L850.75 532.37" stroke="hsl(147.3, 96.5%, 43.6%)" stroke-width="1.5"></path><path d="M834.71 671.95L675.57 674.59" stroke="hsl(147.3, 96.5%, 43.6%)" stroke-width="1.5"></path><path d="M834.71 671.95L659.82 546.62" stroke="hsl(147.3, 96.5%, 43.6%)" stroke-width="1.5"></path><path d="M834.71 671.95L996.86 508.74" stroke="hsl(147.3, 96.5%, 43.6%)" stroke-width="1.5"></path><path d="M1107.23 519.19L1107.23 519.19" stroke="hsl(147.3, 96.5%, 43.6%)" stroke-width="1.5"></path><path d="M1107.23 519.19L996.86 508.74" stroke="hsl(147.3, 96.5%, 43.6%)" stroke-width="1.5"></path><path d="M1107.23 519.19L1122.27 666.37" stroke="hsl(147.3, 96.5%, 43.6%)" stroke-width="1.5"></path><path d="M1107.23 519.19L1256.07 533.14" stroke="hsl(147.3, 96.5%, 43.6%)" stroke-width="1.5"></path><path d="M1107.23 519.19L1155.23 373.49" stroke="hsl(147.3, 96.5%, 43.6%)" stroke-width="1.5"></path><path d="M1107.23 519.19L1266.36 641.59" stroke="hsl(147.3, 96.5%, 43.6%)" stroke-width="1.5"></path><path d="M1107.23 519.19L952.17 383.8" stroke="hsl(147.3, 96.5%, 43.6%)" stroke-width="1.5"></path><path d="M1282.13 -41.73L1282.13 -41.73" stroke="hsl(147.3, 96.5%, 43.6%)" stroke-width="1.5"></path><path d="M1282.13 -41.73L1265.58 94.68" stroke="hsl(147.3, 96.5%, 43.6%)" stroke-width="1.5"></path><path d="M1282.13 -41.73L1430.53 -110.68" stroke="hsl(147.3, 96.5%, 43.6%)" stroke-width="1.5"></path><path d="M1437.39 79.65L1437.39 79.65" stroke="hsl(147.3, 96.5%, 43.6%)" stroke-width="1.5"></path><path d="M1437.39 79.65L1551.43 96.85" stroke="hsl(147.3, 96.5%, 43.6%)" stroke-width="1.5"></path><path d="M1437.39 79.65L1265.58 94.68" stroke="hsl(147.3, 96.5%, 43.6%)" stroke-width="1.5"></path><path d="M1437.39 79.65L1430.53 -110.68" stroke="hsl(147.3, 96.5%, 43.6%)" stroke-width="1.5"></path><path d="M1437.39 79.65L1282.13 -41.73" stroke="hsl(147.3, 96.5%, 43.6%)" stroke-width="1.5"></path><path d="M1437.39 79.65L1307.21 253.33" stroke="hsl(147.3, 96.5%, 43.6%)" stroke-width="1.5"></path><path d="M-80.69 518.12L-80.69 518.12" stroke="hsl(147.3, 96.5%, 43.6%)" stroke-width="1.5"></path><path d="M-80.69 518.12L-82.06 655.21" stroke="hsl(147.3, 96.5%, 43.6%)" stroke-width="1.5"></path><path d="M-80.69 518.12L78.96 490.58" stroke="hsl(147.3, 96.5%, 43.6%)" stroke-width="1.5"></path><path d="M-80.69 518.12L111.69 646.4" stroke="hsl(147.3, 96.5%, 43.6%)" stroke-width="1.5"></path><path d="M-80.69 518.12L189.8 543.61" stroke="hsl(147.3, 96.5%, 43.6%)" stroke-width="1.5"></path><path d="M-80.69 518.12L234.6 687.18" stroke="hsl(147.3, 96.5%, 43.6%)" stroke-width="1.5"></path><path d="M-80.69 518.12L352.15 489.28" stroke="hsl(147.3, 96.5%, 43.6%)" stroke-width="1.5"></path><path d="M-82.06 655.21L-82.06 655.21" stroke="hsl(147.3, 96.5%, 43.6%)" stroke-width="1.5"></path><path d="M-82.06 655.21L111.69 646.4" stroke="hsl(147.3, 96.5%, 43.6%)" stroke-width="1.5"></path><path d="M-82.06 655.21L78.96 490.58" stroke="hsl(147.3, 96.5%, 43.6%)" stroke-width="1.5"></path><path d="M78.96 490.58L78.96 490.58" stroke="hsl(147.3, 96.5%, 43.6%)" stroke-width="1.5"></path><path d="M78.96 490.58L189.8 543.61" stroke="hsl(147.3, 96.5%, 43.6%)" stroke-width="1.5"></path><path d="M78.96 490.58L111.69 646.4" stroke="hsl(147.3, 96.5%, 43.6%)" stroke-width="1.5"></path><path d="M78.96 490.58L234.6 687.18" stroke="hsl(147.3, 96.5%, 43.6%)" stroke-width="1.5"></path><path d="M111.69 646.4L111.69 646.4" stroke="hsl(147.3, 96.5%, 43.6%)" stroke-width="1.5"></path><path d="M111.69 646.4L189.8 543.61" stroke="hsl(147.3, 96.5%, 43.6%)" stroke-width="1.5"></path><path d="M111.69 646.4L234.6 687.18" stroke="hsl(147.3, 96.5%, 43.6%)" stroke-width="1.5"></path><path d="M189.8 543.61L189.8 543.61" stroke="hsl(147.3, 96.5%, 43.6%)" stroke-width="1.5"></path><path d="M189.8 543.61L234.6 687.18" stroke="hsl(147.3, 96.5%, 43.6%)" stroke-width="1.5"></path><path d="M189.8 543.61L367.04 655.88" stroke="hsl(147.3, 96.5%, 43.6%)" stroke-width="1.5"></path><path d="M234.6 687.18L234.6 687.18" stroke="hsl(147.3, 96.5%, 43.6%)" stroke-width="1.5"></path><path d="M234.6 687.18L367.04 655.88" stroke="hsl(147.3, 96.5%, 43.6%)" stroke-width="1.5"></path><path d="M234.6 687.18L352.15 489.28" stroke="hsl(147.3, 96.5%, 43.6%)" stroke-width="1.5"></path><path d="M367.04 655.88L367.04 655.88" stroke="hsl(147.3, 96.5%, 43.6%)" stroke-width="1.5"></path><path d="M367.04 655.88L536.49 681.09" stroke="hsl(147.3, 96.5%, 43.6%)" stroke-width="1.5"></path><path d="M367.04 655.88L541.77 534.73" stroke="hsl(147.3, 96.5%, 43.6%)" stroke-width="1.5"></path><path d="M541.77 534.73L541.77 534.73" stroke="hsl(147.3, 96.5%, 43.6%)" stroke-width="1.5"></path><path d="M541.77 534.73L659.82 546.62" stroke="hsl(147.3, 96.5%, 43.6%)" stroke-width="1.5"></path><path d="M541.77 534.73L536.49 681.09" stroke="hsl(147.3, 96.5%, 43.6%)" stroke-width="1.5"></path><path d="M541.77 534.73L675.57 674.59" stroke="hsl(147.3, 96.5%, 43.6%)" stroke-width="1.5"></path><path d="M536.49 681.09L536.49 681.09" stroke="hsl(147.3, 96.5%, 43.6%)" stroke-width="1.5"></path><path d="M536.49 681.09L675.57 674.59" stroke="hsl(147.3, 96.5%, 43.6%)" stroke-width="1.5"></path><path d="M659.82 546.62L659.82 546.62" stroke="hsl(147.3, 96.5%, 43.6%)" stroke-width="1.5"></path><path d="M659.82 546.62L675.57 674.59" stroke="hsl(147.3, 96.5%, 43.6%)" stroke-width="1.5"></path><path d="M659.82 546.62L536.49 681.09" stroke="hsl(147.3, 96.5%, 43.6%)" stroke-width="1.5"></path><path d="M659.82 546.62L850.75 532.37" stroke="hsl(147.3, 96.5%, 43.6%)" stroke-width="1.5"></path><path d="M675.57 674.59L675.57 674.59" stroke="hsl(147.3, 96.5%, 43.6%)" stroke-width="1.5"></path><path d="M675.57 674.59L850.75 532.37" stroke="hsl(147.3, 96.5%, 43.6%)" stroke-width="1.5"></path><path d="M675.57 674.59L937.69 691.41" stroke="hsl(147.3, 96.5%, 43.6%)" stroke-width="1.5"></path><path d="M821.93 410.72L821.93 410.72" stroke="hsl(147.3, 96.5%, 43.6%)" stroke-width="1.5"></path><path d="M821.93 410.72L850.75 532.37" stroke="hsl(147.3, 96.5%, 43.6%)" stroke-width="1.5"></path><path d="M821.93 410.72L952.17 383.8" stroke="hsl(147.3, 96.5%, 43.6%)" stroke-width="1.5"></path><path d="M821.93 410.72L996.86 508.74" stroke="hsl(147.3, 96.5%, 43.6%)" stroke-width="1.5"></path><path d="M821.93 410.72L659.82 546.62" stroke="hsl(147.3, 96.5%, 43.6%)" stroke-width="1.5"></path><path d="M821.93 410.72L1005.65 235.9" stroke="hsl(147.3, 96.5%, 43.6%)" stroke-width="1.5"></path><path d="M850.75 532.37L850.75 532.37" stroke="hsl(147.3, 96.5%, 43.6%)" stroke-width="1.5"></path><path d="M850.75 532.37L996.86 508.74" stroke="hsl(147.3, 96.5%, 43.6%)" stroke-width="1.5"></path><path d="M850.75 532.37L952.17 383.8" stroke="hsl(147.3, 96.5%, 43.6%)" stroke-width="1.5"></path><path d="M1005.65 235.9L1005.65 235.9" stroke="hsl(147.3, 96.5%, 43.6%)" stroke-width="1.5"></path><path d="M1005.65 235.9L1162.28 222.62" stroke="hsl(147.3, 96.5%, 43.6%)" stroke-width="1.5"></path><path d="M1005.65 235.9L952.17 383.8" stroke="hsl(147.3, 96.5%, 43.6%)" stroke-width="1.5"></path><path d="M1005.65 235.9L1155.23 373.49" stroke="hsl(147.3, 96.5%, 43.6%)" stroke-width="1.5"></path><path d="M1005.65 235.9L996.86 508.74" stroke="hsl(147.3, 96.5%, 43.6%)" stroke-width="1.5"></path><path d="M1005.65 235.9L1265.58 94.68" stroke="hsl(147.3, 96.5%, 43.6%)" stroke-width="1.5"></path><path d="M952.17 383.8L952.17 383.8" stroke="hsl(147.3, 96.5%, 43.6%)" stroke-width="1.5"></path><path d="M952.17 383.8L996.86 508.74" stroke="hsl(147.3, 96.5%, 43.6%)" stroke-width="1.5"></path><path d="M952.17 383.8L1155.23 373.49" stroke="hsl(147.3, 96.5%, 43.6%)" stroke-width="1.5"></path><path d="M996.86 508.74L996.86 508.74" stroke="hsl(147.3, 96.5%, 43.6%)" stroke-width="1.5"></path><path d="M937.69 691.41L937.69 691.41" stroke="hsl(147.3, 96.5%, 43.6%)" stroke-width="1.5"></path><path d="M937.69 691.41L850.75 532.37" stroke="hsl(147.3, 96.5%, 43.6%)" stroke-width="1.5"></path><path d="M937.69 691.41L1122.27 666.37" stroke="hsl(147.3, 96.5%, 43.6%)" stroke-width="1.5"></path><path d="M937.69 691.41L996.86 508.74" stroke="hsl(147.3, 96.5%, 43.6%)" stroke-width="1.5"></path><path d="M1162.28 222.62L1162.28 222.62" stroke="hsl(147.3, 96.5%, 43.6%)" stroke-width="1.5"></path><path d="M1162.28 222.62L1307.21 253.33" stroke="hsl(147.3, 96.5%, 43.6%)" stroke-width="1.5"></path><path d="M1162.28 222.62L1155.23 373.49" stroke="hsl(147.3, 96.5%, 43.6%)" stroke-width="1.5"></path><path d="M1155.23 373.49L1155.23 373.49" stroke="hsl(147.3, 96.5%, 43.6%)" stroke-width="1.5"></path><path d="M1155.23 373.49L1256.07 533.14" stroke="hsl(147.3, 96.5%, 43.6%)" stroke-width="1.5"></path><path d="M1155.23 373.49L1307.21 253.33" stroke="hsl(147.3, 96.5%, 43.6%)" stroke-width="1.5"></path><path d="M1122.27 666.37L1122.27 666.37" stroke="hsl(147.3, 96.5%, 43.6%)" stroke-width="1.5"></path><path d="M1122.27 666.37L1266.36 641.59" stroke="hsl(147.3, 96.5%, 43.6%)" stroke-width="1.5"></path><path d="M1265.58 94.68L1265.58 94.68" stroke="hsl(147.3, 96.5%, 43.6%)" stroke-width="1.5"></path><path d="M1265.58 94.68L1307.21 253.33" stroke="hsl(147.3, 96.5%, 43.6%)" stroke-width="1.5"></path><path d="M1265.58 94.68L1162.28 222.62" stroke="hsl(147.3, 96.5%, 43.6%)" stroke-width="1.5"></path><path d="M1307.21 253.33L1307.21 253.33" stroke="hsl(147.3, 96.5%, 43.6%)" stroke-width="1.5"></path><path d="M1307.21 253.33L1571.17 339.41" stroke="hsl(147.3, 96.5%, 43.6%)" stroke-width="1.5"></path><path d="M1256.07 533.14L1256.07 533.14" stroke="hsl(147.3, 96.5%, 43.6%)" stroke-width="1.5"></path><path d="M1256.07 533.14L1266.36 641.59" stroke="hsl(147.3, 96.5%, 43.6%)" stroke-width="1.5"></path><path d="M1256.07 533.14L1122.27 666.37" stroke="hsl(147.3, 96.5%, 43.6%)" stroke-width="1.5"></path><path d="M1256.07 533.14L1450.1 513.35" stroke="hsl(147.3, 96.5%, 43.6%)" stroke-width="1.5"></path><path d="M1256.07 533.14L1446.62 706.71" stroke="hsl(147.3, 96.5%, 43.6%)" stroke-width="1.5"></path><path d="M1266.36 641.59L1266.36 641.59" stroke="hsl(147.3, 96.5%, 43.6%)" stroke-width="1.5"></path><path d="M1266.36 641.59L1446.62 706.71" stroke="hsl(147.3, 96.5%, 43.6%)" stroke-width="1.5"></path><path d="M1430.53 -110.68L1430.53 -110.68" stroke="hsl(147.3, 96.5%, 43.6%)" stroke-width="1.5"></path><path d="M1430.53 -110.68L1566.47 -100.88" stroke="hsl(147.3, 96.5%, 43.6%)" stroke-width="1.5"></path><path d="M1430.53 -110.68L1551.43 96.85" stroke="hsl(147.3, 96.5%, 43.6%)" stroke-width="1.5"></path><path d="M1430.53 -110.68L1265.58 94.68" stroke="hsl(147.3, 96.5%, 43.6%)" stroke-width="1.5"></path><path d="M1430.53 -110.68L1307.21 253.33" stroke="hsl(147.3, 96.5%, 43.6%)" stroke-width="1.5"></path><path d="M1450.1 513.35L1450.1 513.35" stroke="hsl(147.3, 96.5%, 43.6%)" stroke-width="1.5"></path><path d="M1450.1 513.35L1576.83 647.28" stroke="hsl(147.3, 96.5%, 43.6%)" stroke-width="1.5"></path><path d="M1450.1 513.35L1446.62 706.71" stroke="hsl(147.3, 96.5%, 43.6%)" stroke-width="1.5"></path><path d="M1446.62 706.71L1446.62 706.71" stroke="hsl(147.3, 96.5%, 43.6%)" stroke-width="1.5"></path><path d="M1446.62 706.71L1576.83 647.28" stroke="hsl(147.3, 96.5%, 43.6%)" stroke-width="1.5"></path><path d="M1446.62 706.71L1122.27 666.37" stroke="hsl(147.3, 96.5%, 43.6%)" stroke-width="1.5"></path><path d="M1566.47 -100.88L1566.47 -100.88" stroke="hsl(147.3, 96.5%, 43.6%)" stroke-width="1.5"></path><path d="M1566.47 -100.88L1551.43 96.85" stroke="hsl(147.3, 96.5%, 43.6%)" stroke-width="1.5"></path><path d="M1566.47 -100.88L1437.39 79.65" stroke="hsl(147.3, 96.5%, 43.6%)" stroke-width="1.5"></path><path d="M1551.43 96.85L1551.43 96.85" stroke="hsl(147.3, 96.5%, 43.6%)" stroke-width="1.5"></path><path d="M1551.43 96.85L1608.86 260.31" stroke="hsl(147.3, 96.5%, 43.6%)" stroke-width="1.5"></path><path d="M1551.43 96.85L1571.17 339.41" stroke="hsl(147.3, 96.5%, 43.6%)" stroke-width="1.5"></path><path d="M1608.86 260.31L1608.86 260.31" stroke="hsl(147.3, 96.5%, 43.6%)" stroke-width="1.5"></path><path d="M1608.86 260.31L1571.17 339.41" stroke="hsl(147.3, 96.5%, 43.6%)" stroke-width="1.5"></path><path d="M1608.86 260.31L1437.39 79.65" stroke="hsl(147.3, 96.5%, 43.6%)" stroke-width="1.5"></path><path d="M1608.86 260.31L1450.1 513.35" stroke="hsl(147.3, 96.5%, 43.6%)" stroke-width="1.5"></path><path d="M1608.86 260.31L1307.21 253.33" stroke="hsl(147.3, 96.5%, 43.6%)" stroke-width="1.5"></path><path d="M1571.17 339.41L1571.17 339.41" stroke="hsl(147.3, 96.5%, 43.6%)" stroke-width="1.5"></path><path d="M1571.17 339.41L1450.1 513.35" stroke="hsl(147.3, 96.5%, 43.6%)" stroke-width="1.5"></path><path d="M1576.83 647.28L1576.83 647.28" stroke="hsl(147.3, 96.5%, 43.6%)" stroke-width="1.5"></path><path d="M1576.83 647.28L1571.17 339.41" stroke="hsl(147.3, 96.5%, 43.6%)" stroke-width="1.5"></path><path d="M1576.83 647.28L1266.36 641.59" stroke="hsl(147.3, 96.5%, 43.6%)" stroke-width="1.5"></path><path d="M1576.83 647.28L1256.07 533.14" stroke="hsl(147.3, 96.5%, 43.6%)" stroke-width="1.5"></path><circle r="25" cx="352.15" cy="489.28" fill="url(#SvgjsRadialGradient1062)"></circle><circle r="25" cx="834.71" cy="671.95" fill="url(#SvgjsRadialGradient1062)"></circle><circle r="25" cx="1107.23" cy="519.19" fill="url(#SvgjsRadialGradient1062)"></circle><circle r="25" cx="1282.13" cy="-41.73" fill="url(#SvgjsRadialGradient1062)"></circle><circle r="25" cx="1437.39" cy="79.65" fill="url(#SvgjsRadialGradient1062)"></circle><circle r="5" cx="-80.69" cy="518.12" fill="#81d4a7"></circle><circle r="5" cx="-82.06" cy="655.21" fill="#81d4a7"></circle><circle r="5" cx="78.96" cy="490.58" fill="#81d4a7"></circle><circle r="5" cx="111.69" cy="646.4" fill="#81d4a7"></circle><circle r="5" cx="189.8" cy="543.61" fill="#81d4a7"></circle><circle r="5" cx="234.6" cy="687.18" fill="#81d4a7"></circle><circle r="5" cx="367.04" cy="655.88" fill="#81d4a7"></circle><circle r="5" cx="541.77" cy="534.73" fill="#81d4a7"></circle><circle r="5" cx="536.49" cy="681.09" fill="#81d4a7"></circle><circle r="5" cx="659.82" cy="546.62" fill="#81d4a7"></circle><circle r="5" cx="675.57" cy="674.59" fill="#81d4a7"></circle><circle r="5" cx="821.93" cy="410.72" fill="#81d4a7"></circle><circle r="5" cx="850.75" cy="532.37" fill="#81d4a7"></circle><circle r="5" cx="1005.65" cy="235.9" fill="#81d4a7"></circle><circle r="5" cx="952.17" cy="383.8" fill="#81d4a7"></circle><circle r="5" cx="996.86" cy="508.74" fill="#81d4a7"></circle><circle r="5" cx="937.69" cy="691.41" fill="#81d4a7"></circle><circle r="5" cx="1162.28" cy="222.62" fill="#81d4a7"></circle><circle r="5" cx="1155.23" cy="373.49" fill="#81d4a7"></circle><circle r="5" cx="1122.27" cy="666.37" fill="#81d4a7"></circle><circle r="5" cx="1265.58" cy="94.68" fill="#81d4a7"></circle><circle r="5" cx="1307.21" cy="253.33" fill="#81d4a7"></circle><circle r="5" cx="1256.07" cy="533.14" fill="#81d4a7"></circle><circle r="5" cx="1266.36" cy="641.59" fill="#81d4a7"></circle><circle r="5" cx="1430.53" cy="-110.68" fill="#81d4a7"></circle><circle r="5" cx="1450.1" cy="513.35" fill="#81d4a7"></circle><circle r="5" cx="1446.62" cy="706.71" fill="#81d4a7"></circle><circle r="5" cx="1566.47" cy="-100.88" fill="#81d4a7"></circle><circle r="5" cx="1551.43" cy="96.85" fill="#81d4a7"></circle><circle r="5" cx="1608.86" cy="260.31" fill="#81d4a7"></circle><circle r="5" cx="1571.17" cy="339.41" fill="#81d4a7"></circle><circle r="5" cx="1576.83" cy="647.28" fill="#81d4a7"></circle></g><defs><mask id="SvgjsMask1061"><rect width="1440" height="560" fill="#ffffff"></rect></mask><radialGradient id="SvgjsRadialGradient1062"><stop stop-color="#ffffff" offset="0.1"></stop><stop stop-color="rgba(3, 168, 78, 1)" offset="0.2"></stop><stop stop-color="rgba(3, 168, 78, 0)" offset="1"></stop></radialGradient></defs></svg>